# xmcd CD database file
#
# Track frame offsets:
#	150
#	19556
#	33469
#	53800
#	65272
#	81526
#	93807
#	104605
#	115567
#	136572
#	151515
#	172259
#	186775
#	197890
#	212972
#	228589
#	241941
#	259780
#	272278
#	286353
#
# Disc length: 4015 seconds
#
# Revision: 0
# Processed by: cddbd v1.5.2PL0 Copyright (c) Steve Scherf et al.
# Submitted via: CDex 1.51
#
DISCID=0e0fad14
DTITLE=A-Jackson - Margaritaville
DYEAR=1980
DGENRE=Country
TTITLE0=Margaritville - Margaritville
TTITLE1=Pop a Top - Pop a Top
TTITLE2=Remember - When
TTITLE3=Reveboor - Man
TTITLE4=Right in the Palm of your Hand - Right in the Palm of your Hand
TTITLE5=She Just Stared - She Just Stared
TTITLE6=She's got the Rhythm - She's got the Rhythm
TTITLE7=Short Sweet Ride - Short Sweet Ride
TTITLE8=Small Town Southern  Man - Small Town Southern  Man
TTITLE9=Someday - Someday
TTITLE10=Song for the Live - Song for the Live
TTITLE11=Summertime - Blues
TTITLE12=Tall Tall Tree's - Tall Tall Tree's
TTITLE13=Thank God for the Radio - Thank God for the Radio
TTITLE14=Track - No08
TTITLE15=Wandet - Wandet
TTITLE16=Where i kome from - Where i kome from
TTITLE17=Who I am - Who I am
TTITLE18=You can't give up an Love - You can't give up an Love
TTITLE19=my own Kind of hat - my own Kind of hat
EXTD=YEAR: 1980
EXTT0=
EXTT1=
EXTT2=
EXTT3=
EXTT4=
EXTT5=
EXTT6=
EXTT7=
EXTT8=
EXTT9=
EXTT10=
EXTT11=
EXTT12=
EXTT13=
EXTT14=
EXTT15=
EXTT16=
EXTT17=
EXTT18=
EXTT19=
PLAYORDER=
